<svg width="19" height="14" viewBox="0 0 19 14" fill="none" xmlns="http://www.w3.org/2000/svg">
<path id="Vector" d="M17 13.25L10.75 13.25C10.4185 13.25 10.1005 13.1183 9.86612 12.8839C9.6317 12.6495 9.5 12.3315 9.5 12C9.5 11.6685 9.6317 11.3505 9.86612 11.1161C10.1005 10.8817 10.4185 10.75 10.75 10.75L17 10.75C17.3315 10.75 17.6495 10.8817 17.8839 11.1161C18.1183 11.3505 18.25 11.6685 18.25 12C18.25 12.3315 18.1183 12.6495 17.8839 12.8839C17.6495 13.1183 17.3315 13.25 17 13.25ZM8.25 3.25L2 3.25C1.66848 3.25 1.35054 3.1183 1.11612 2.88388C0.881698 2.64946 0.750001 2.33152 0.750001 2C0.750001 1.66848 0.881698 1.35054 1.11612 1.11612C1.35054 0.881695 1.66848 0.749999 2 0.749999L8.25 0.749999C8.58152 0.749999 8.89946 0.881696 9.13388 1.11612C9.3683 1.35054 9.5 1.66848 9.5 2C9.5 2.33152 9.3683 2.64946 9.13388 2.88388C8.89946 3.1183 8.58152 3.25 8.25 3.25ZM17 8.25L2 8.25C1.66848 8.25 1.35054 8.1183 1.11612 7.88388C0.881697 7.64946 0.750001 7.33152 0.750001 7C0.750001 6.66848 0.881697 6.35054 1.11612 6.11612C1.35054 5.88169 1.66848 5.75 2 5.75L17 5.75C17.3315 5.75 17.6495 5.8817 17.8839 6.11612C18.1183 6.35054 18.25 6.66848 18.25 7C18.25 7.33152 18.1183 7.64946 17.8839 7.88388C17.6495 8.1183 17.3315 8.25 17 8.25Z" fill="#AFAFAF"/>
</svg>
