<svg width="21" height="20" viewBox="0 0 21 20" fill="none" xmlns="http://www.w3.org/2000/svg">
<path id="Vector" d="M10.5 14.4688C10.3333 14.4688 10.1771 14.4429 10.0313 14.3913C9.88542 14.3396 9.75 14.2508 9.625 14.125L5.125 9.625C4.875 9.375 4.755 9.08334 4.765 8.75C4.775 8.41667 4.895 8.125 5.125 7.875C5.375 7.625 5.67208 7.495 6.01625 7.485C6.36042 7.475 6.65708 7.59459 6.90625 7.84375L9.25 10.1875L9.25 1.25C9.25 0.895838 9.37 0.599171 9.61 0.360004C9.85 0.120838 10.1467 0.000837644 10.5 4.31034e-06C10.8533 -0.000829023 11.1504 0.119171 11.3913 0.360004C11.6321 0.600838 11.7517 0.897504 11.75 1.25L11.75 10.1875L14.0938 7.84375C14.3438 7.59375 14.6408 7.47375 14.985 7.48375C15.3292 7.49375 15.6258 7.62417 15.875 7.875C16.1042 8.125 16.2242 8.41667 16.235 8.75C16.2458 9.08334 16.1258 9.375 15.875 9.625L11.375 14.125C11.25 14.25 11.1146 14.3388 10.9688 14.3913C10.8229 14.4438 10.6667 14.4696 10.5 14.4688ZM3 20C2.3125 20 1.72417 19.7554 1.235 19.2663C0.745833 18.7771 0.500833 18.1883 0.5 17.5L0.5 15C0.5 14.6458 0.62 14.3492 0.86 14.11C1.1 13.8708 1.39667 13.7508 1.75 13.75C2.10333 13.7492 2.40042 13.8692 2.64125 14.11C2.88208 14.3508 3.00167 14.6475 3 15L3 17.5L18 17.5V15C18 14.6458 18.12 14.3492 18.36 14.11C18.6 13.8708 18.8967 13.7508 19.25 13.75C19.6033 13.7492 19.9004 13.8692 20.1412 14.11C20.3821 14.3508 20.5017 14.6475 20.5 15V17.5C20.5 18.1875 20.2554 18.7763 19.7663 19.2663C19.2771 19.7563 18.6883 20.0008 18 20L3 20Z" fill="#AFAFAF"/>
</svg>
